<svg width="92" height="50" viewBox="0 0 92 50" fill="none" xmlns="http://www.w3.org/2000/svg">
<rect width="92" height="50" rx="10" fill="black" fill-opacity="0.5"/>
<path d="M59.125 24.9996C59.1258 25.3179 59.0442 25.631 58.8881 25.9084C58.732 26.1859 58.5068 26.4182 58.2344 26.5828L41.35 36.9117C41.0653 37.086 40.7393 37.1812 40.4056 37.1874C40.0718 37.1936 39.7425 37.1105 39.4516 36.9469C39.1634 36.7858 38.9234 36.5508 38.7561 36.2662C38.5889 35.9815 38.5005 35.6575 38.5 35.3273V14.6719C38.5005 14.3417 38.5889 14.0177 38.7561 13.7331C38.9234 13.4484 39.1634 13.2135 39.4516 13.0523C39.7425 12.8887 40.0718 12.8057 40.4056 12.8118C40.7393 12.818 41.0653 12.9132 41.35 13.0875L58.2344 23.4164C58.5068 23.581 58.732 23.8133 58.8881 24.0908C59.0442 24.3682 59.1258 24.6813 59.125 24.9996Z" fill="#E6E6E6"/>
</svg>
